REM DIRINDEX 1\2,1\3\5,1\3\6,1\4\7,1\4\8
REM DIRNAME cjc139,folder01,folder02,folder03,folder04,folder05,folder06,folder07
TITLE ""
FILE "EG_E1.5_03.mp3" MP3
  TRACK 01 AUDIO
    TITLE "0:"
    INDEX 01 00:00:00
  TRACK 02 AUDIO
    TITLE "2:cjc139_0056"
    INDEX 01 00:00:17
  TRACK 03 AUDIO
    TITLE "0:"
    INDEX 01 00:02:14
  TRACK 04 AUDIO
    TITLE "2:cjc139_0057"
    INDEX 01 00:03:35
  TRACK 05 AUDIO
    TITLE "0:"
    INDEX 01 00:05:67
  TRACK 06 AUDIO
    TITLE "2:cjc139_0058"
    INDEX 01 00:07:17
  TRACK 07 AUDIO
    TITLE "0:"
    INDEX 01 00:09:18
  TRACK 08 AUDIO
    TITLE "2:cjc139_0059"
    INDEX 01 00:10:43
  TRACK 09 AUDIO
    TITLE "0:"
    INDEX 01 00:12:54
  TRACK 10 AUDIO
    TITLE "2:cjc139_0060"
    INDEX 01 00:14:07
  TRACK 11 AUDIO
    TITLE "0:"
    INDEX 01 00:16:67
  TRACK 12 AUDIO
    TITLE "2:cjc139_0061"
    INDEX 01 00:18:15
  TRACK 13 AUDIO
    TITLE "0:"
    INDEX 01 00:21:02
  TRACK 14 AUDIO
    TITLE "2:cjc139_0062"
    INDEX 01 00:22:23
  TRACK 15 AUDIO
    TITLE "0:"
    INDEX 01 00:25:01
  TRACK 16 AUDIO
    TITLE "2:cjc139_0063"
    INDEX 01 00:26:24
  TRACK 17 AUDIO
    TITLE "0:"
    INDEX 01 00:28:25
  TRACK 18 AUDIO
    TITLE "2:cjc139_0064"
    INDEX 01 00:29:46
  TRACK 19 AUDIO
    TITLE "0:"
    INDEX 01 00:32:01
  TRACK 20 AUDIO
    TITLE "2:cjc139_0065"
    INDEX 01 00:33:24
  TRACK 21 AUDIO
    TITLE "0:"
    INDEX 01 00:35:35
  TRACK 22 AUDIO
    TITLE "2:cjc139_0066"
    INDEX 01 00:36:58
  TRACK 23 AUDIO
    TITLE "0:"
    INDEX 01 00:39:07
  TRACK 24 AUDIO
    TITLE "2:cjc139_0067"
    INDEX 01 00:40:28
  TRACK 25 AUDIO
    TITLE "0:"
    INDEX 01 00:42:49
  TRACK 26 AUDIO
    TITLE "2:cjc139_0068"
    INDEX 01 00:43:72
  TRACK 27 AUDIO
    TITLE "0:"
    INDEX 01 00:46:17
  TRACK 28 AUDIO
    TITLE "2:cjc139_0069"
    INDEX 01 00:47:38
  TRACK 29 AUDIO
    TITLE "0:"
    INDEX 01 00:49:63
  TRACK 30 AUDIO
    TITLE "2:cjc139_0070"
    INDEX 01 00:51:15
  TRACK 31 AUDIO
    TITLE "0:"
    INDEX 01 00:52:43
  TRACK 32 AUDIO
    TITLE "2:cjc139_0071"
    INDEX 01 00:53:64
  TRACK 33 AUDIO
    TITLE "0:"
    INDEX 01 00:56:57
  TRACK 34 AUDIO
    TITLE "2:cjc139_0072"
    INDEX 01 00:58:05
  TRACK 35 AUDIO
    TITLE "0:"
    INDEX 01 01:00:68
  TRACK 36 AUDIO
    TITLE "2:cjc139_0073"
    INDEX 01 01:02:14
  TRACK 37 AUDIO
    TITLE "0:"
    INDEX 01 01:05:15
  TRACK 38 AUDIO
    TITLE "2:cjc139_0074"
    INDEX 01 01:06:36
  TRACK 39 AUDIO
    TITLE "0:"
    INDEX 01 01:09:01
  TRACK 40 AUDIO
    TITLE "2:cjc139_0075"
    INDEX 01 01:10:22
  TRACK 41 AUDIO
    TITLE "0:"
    INDEX 01 01:12:58
  TRACK 42 AUDIO
    TITLE "2:cjc139_0076"
    INDEX 01 01:14:08
  TRACK 43 AUDIO
    TITLE "0:"
    INDEX 01 01:16:38
  TRACK 44 AUDIO
    TITLE "2:cjc139_0077"
    INDEX 01 01:17:61
  TRACK 45 AUDIO
    TITLE "0:"
    INDEX 01 01:20:24
  TRACK 46 AUDIO
    TITLE "2:cjc139_0078"
    INDEX 01 01:21:47
  TRACK 47 AUDIO
    TITLE "0:"
    INDEX 01 01:24:06
  TRACK 48 AUDIO
    TITLE "2:cjc139_0079"
    INDEX 01 01:25:31
  TRACK 49 AUDIO
    TITLE "0:"
    INDEX 01 01:28:10
  TRACK 50 AUDIO
    TITLE "2:cjc139_0080"
    INDEX 01 01:29:33
  TRACK 51 AUDIO
    TITLE "0:"
    INDEX 01 01:32:13
  TRACK 52 AUDIO
    TITLE "2:cjc139_0081"
    INDEX 01 01:33:34
  TRACK 53 AUDIO
    TITLE "0:"
    INDEX 01 01:35:63
  TRACK 54 AUDIO
    TITLE "2:cjc139_0082"
    INDEX 01 01:37:13
  TRACK 55 AUDIO
    TITLE "0:"
    INDEX 01 01:39:41
  TRACK 56 AUDIO
    TITLE "2:cjc139_0083"
    INDEX 01 01:40:62
  TRACK 57 AUDIO
    TITLE "0:"
    INDEX 01 01:42:73
  TRACK 58 AUDIO
    TITLE "2:cjc139_0084"
    INDEX 01 01:44:21
  TRACK 59 AUDIO
    TITLE "0:"
    INDEX 01 01:46:70
  TRACK 60 AUDIO
    TITLE "2:cjc139_0085"
    INDEX 01 01:48:16
  TRACK 61 AUDIO
    TITLE "0:"
    INDEX 01 01:51:23
